<svg width="60" height="60" viewBox="0 0 60 60" fill="none" xmlns="http://www.w3.org/2000/svg">
<path d="M6.85889 33.123C6.98789 33.718 7.11589 34.308 7.24089 34.887" stroke="black" stroke-width="2" stroke-miterlimit="10"/>
<path d="M7.72795 37.139C8.34995 40.019 8.89695 42.546 9.27995 44.321C9.61795 45.884 10.9999 47.001 12.5989 47.001H26.9999C28.1039 47.001 28.9999 46.105 28.9999 45.001V43.001C28.9999 41.897 28.1039 41.001 26.9999 41.001H18.7339C16.3789 41.001 14.3429 39.358 13.8459 37.057L7.90995 9.57803C7.67695 8.49803 6.61195 7.81203 5.53295 8.04603L3.57795 8.46803C2.49795 8.70103 1.81195 9.76603 2.04495 10.846C2.04495 10.846 4.29495 21.25 6.37895 30.896" stroke="black" stroke-width="2" stroke-miterlimit="10"/>
<path d="M20 27.828V31.5C20 33.434 21.567 35 23.5 35H29.469C31.971 35 34 37.028 34 39.531V51.999L35.103 52.367C36.241 52.746 37.008 53.815 37 55.016C36.996 55.561 36.545 56 36 56H31C29.896 56 29 55.104 29 54V45" stroke="black" stroke-width="2" stroke-miterlimit="10"/>
<path d="M13.847 37.056C13.284 34.453 13.001 31.798 13 29.136V26.907C13 24.197 15.197 22 17.906 22H18.711C19.426 22 20.113 22.285 20.619 22.791L24.831 27.003L31 27C32.104 27 33 27.896 33 29C33 30.104 32.104 31 31 31H24C23.448 31 22.947 30.775 22.586 30.414L18.408 26.237" stroke="black" stroke-width="2" stroke-miterlimit="10"/>
<path d="M48.33 27C49.133 27 49.859 26.52 50.172 25.779L54.921 14.548C55.136 14.039 54.899 13.453 54.389 13.237C52.864 12.592 51.104 13.306 50.457 14.832L47.004 23H38C36.344 23 35 24.343 35 26C35 26.553 35.447 27 36 27" stroke="black" stroke-width="2" stroke-miterlimit="10"/>
<path d="M31 27H57C57.553 27 58 27.447 58 28V30C58 30.553 57.553 31 57 31H31" stroke="black" stroke-width="2" stroke-miterlimit="10"/>
<path d="M58 57V30" stroke="black" stroke-width="2" stroke-miterlimit="10"/>
<path d="M25 47V57" stroke="black" stroke-width="2" stroke-miterlimit="10"/>
<path d="M13 47V57" stroke="black" stroke-width="2" stroke-miterlimit="10"/>
<path d="M54 31V39L44.104 31" stroke="black" stroke-width="2" stroke-miterlimit="10"/>
<path d="M48.229 39.479L54 44.144V57" stroke="black" stroke-width="2" stroke-miterlimit="10"/>
<path d="M44.3931 36.376L45.6901 37.426" stroke="black" stroke-width="2" stroke-miterlimit="10"/>
<path d="M37.7419 31L42.3179 34.699" stroke="black" stroke-width="2" stroke-miterlimit="10"/>
<path d="M21 14.5C21 16.434 19.434 18 17.5 18C15.567 18 14 16.434 14 14.5V12.5C14 10.567 15.567 9 17.5 9C19.434 9 21 10.567 21 12.5V14.5Z" stroke="black" stroke-width="2" stroke-miterlimit="10"/>
<path d="M29 9V11" stroke="black" stroke-width="2" stroke-miterlimit="10"/>
<path d="M29 13V17" stroke="black" stroke-width="2" stroke-miterlimit="10"/>
<path d="M32 22C28.135 22 25 19.985 25 17.5V9.5C25 7.015 28.135 5 32 5C35.866 5 39 7.015 39 9.5V18" stroke="black" stroke-width="2" stroke-miterlimit="10"/>
</svg>
