<svg width="60" height="60" viewBox="0 0 60 60" fill="none" xmlns="http://www.w3.org/2000/svg">
<path d="M35.25 33.2209L12.438 51.5619C12.717 52.3109 13 52.9819 13 53.6149C13 54.4389 12.649 55.2409 11.98 55.7789C11.793 55.9299 11.572 55.9999 11.348 55.9999C11.057 55.9999 10.771 55.8699 10.575 55.6269L7.442 51.7299C7.146 51.3619 7 50.9279 7 50.4829C7 49.8959 7.254 49.3139 7.746 48.9179L18.549 40.2329" stroke="black" stroke-width="2" stroke-miterlimit="10"/>
<path d="M19.712 52.354L18.312 53.479" stroke="black" stroke-width="2" stroke-miterlimit="10"/>
<path d="M29.656 44.358L22.197 50.355" stroke="black" stroke-width="2" stroke-miterlimit="10"/>
<path d="M7.441 51.729L4.464 48.026C4.164 47.652 4 47.188 4 46.708C4 46.07 4.289 45.467 4.785 45.067L13.581 37.996" stroke="black" stroke-width="2" stroke-miterlimit="10"/>
<path d="M2 17C2 15.896 2.896 15 4 15C4.468 15 4.898 15.165 5.241 15.434C6.85 16.693 9.25 18 13 18C18.583 18 20.275 14 25.275 14C30.667 14 31.588 15.221 36.293 15.99C37.564 16.197 38.731 16.836 39.579 17.804L44.234 23.123C44.728 23.688 45 24.413 45 25.164C45 25.711 44.865 26.257 44.58 26.725C41.567 31.665 36.905 34 27 34C22 34 19 38 14 38C9.625 38 5.756 36.759 3.157 35.813C2.449 35.556 2 34.803 2 34C2 30.333 3 28.792 3 25.5C3 22.208 2 21.208 2 17Z" stroke="black" stroke-width="2" stroke-miterlimit="10"/>
<path d="M39.807 31.499L39.029 35.666C39.008 35.774 39 35.886 39 36C39 37.104 39.896 38 41 38H47C48.104 38 49 37.104 49 36C49 34.896 48.104 34 47 34H43.408L44.945 25.756" stroke="black" stroke-width="2" stroke-miterlimit="10"/>
<path d="M7.68797 24.5411C7.01597 24.1031 6.55997 23.6601 6.29297 23.3621" stroke="black" stroke-width="2" stroke-miterlimit="10"/>
<path d="M28.8969 23.852C27.3819 23.389 25.6239 23 23.9999 23C18.9999 23 16.9999 26 12.9999 26C11.9059 26 10.9559 25.856 10.1389 25.633" stroke="black" stroke-width="2" stroke-miterlimit="10"/>
<path d="M32.8131 25.359C32.8131 25.359 32.1671 25.043 31.1531 24.641" stroke="black" stroke-width="2" stroke-miterlimit="10"/>
<path d="M32.877 15.227L44.654 4.52C45.01 4.197 45.482 4 46 4C47.104 4 48 4.896 48 6C48 6.587 47.748 7.114 47.345 7.48L37.576 16.361" stroke="black" stroke-width="2" stroke-miterlimit="10"/>
<path d="M43.268 38C43.098 38.294 43 38.636 43 39V42" stroke="black" stroke-width="2" stroke-miterlimit="10"/>
<path d="M53 42V39C53 37.896 52.104 37 51 37H48.731" stroke="black" stroke-width="2" stroke-miterlimit="10"/>
<path d="M56 42H40C38.896 42 38 42.896 38 44V54C38 55.104 38.896 56 40 56H56C57.104 56 58 55.104 58 54V44C58 42.896 57.104 42 56 42Z" stroke="black" stroke-width="2" stroke-miterlimit="10"/>
<path d="M49 51H47C46.447 51 46 50.553 46 50V48C46 47.447 46.447 47 47 47H49C49.553 47 50 47.447 50 48V50C50 50.553 49.553 51 49 51Z" stroke="black" stroke-width="2" stroke-miterlimit="10"/>
<path d="M38.376 42.835L42.4 48.2C42.777 48.703 43.371 49 44 49H46" stroke="black" stroke-width="2" stroke-miterlimit="10"/>
<path d="M57.623 42.835L53.6 48.2C53.223 48.703 52.629 49 52 49H50" stroke="black" stroke-width="2" stroke-miterlimit="10"/>
<path d="M48.172 12.172C48.895 11.447 49.895 11 51 11C53.209 11 55 12.791 55 15C55 16.104 54.553 17.104 53.828 17.828L51.828 19.828C51.104 20.553 50.104 21 49 21C46.791 21 45 19.209 45 17C45 15.896 45.447 14.896 46.172 14.172L48.172 12.172Z" stroke="black" stroke-width="2" stroke-miterlimit="10"/>
</svg>
