<svg width="60" height="60" viewBox="0 0 60 60" fill="none" xmlns="http://www.w3.org/2000/svg">
<path d="M32.659 12.612C35.306 9.77 39.31 8 43.5 8C51.508 8 58 14.492 58 22.5C58 25.826 56.942 28.938 54.998 31.336C50.406 37 30 53.396 30 53.396C30 53.396 9.594 37 5.002 31.336C3.058 28.938 2 25.826 2 22.5C2 14.492 8.492 8 16.5 8C23.949 8 30.179 13.61 31 20.839" stroke="black" stroke-width="2" stroke-miterlimit="10"/>
<path d="M47.6065 33.2988C45.1375 35.5878 42.2905 38.0758 39.3965 40.5398" stroke="black" stroke-width="2" stroke-miterlimit="10"/>
<path d="M52.4693 28.373C51.9473 29.012 51.2293 29.785 50.3633 30.654" stroke="black" stroke-width="2" stroke-miterlimit="10"/>
<path d="M44 48H42V50H44V48Z" fill="black"/>
<path d="M40 51H38V53H40V51Z" fill="black"/>
<path d="M36 54H34V56H36V54Z" fill="black"/>
<path d="M15.936 12.0151C10.399 12.3081 6 16.8901 6 22.5001C6 22.9641 6.03 23.4221 6.089 23.8701" stroke="black" stroke-width="2" stroke-miterlimit="10"/>
<path d="M23.4072 14.5908C22.4582 13.7618 21.3592 13.0998 20.1562 12.6528" stroke="black" stroke-width="2" stroke-miterlimit="10"/>
</svg>
