<svg width="60" height="60" viewBox="0 0 60 60" fill="none" xmlns="http://www.w3.org/2000/svg">
<path d="M30.0005 17V30L21.3965 38.604" stroke="black" stroke-width="2" stroke-miterlimit="10"/>
<path d="M11.0914 9.34912C7.95144 12.2261 5.46944 15.8091 3.89844 19.8471" stroke="black" stroke-width="2" stroke-miterlimit="10"/>
<path d="M17.7218 4.8291C16.1618 5.5921 14.6828 6.4951 13.3018 7.5231" stroke="black" stroke-width="2" stroke-miterlimit="10"/>
<path d="M48.9092 50.6513C52.0492 47.7743 54.5312 44.1913 56.1022 40.1533" stroke="black" stroke-width="2" stroke-miterlimit="10"/>
<path d="M42.2793 55.1711C43.8393 54.4081 45.3183 53.5051 46.6993 52.4771" stroke="black" stroke-width="2" stroke-miterlimit="10"/>
<path d="M48.575 45.199C44.174 50.572 37.487 54 30 54C16.745 54 6 43.255 6 30C6 16.745 16.745 6 30 6C37.106 6 43.606 9.092 48 14L50.586 11.414C50.851 11.149 51.211 11 51.586 11C52.367 11 53 11.633 53 12.414V22C53 23.105 52.105 24 51 24H41.414C40.633 24 40 23.367 40 22.586C40 22.211 40.149 21.851 40.414 21.586L43 19C39.882 15.318 35.203 13 30 13C25.539 13 21.479 14.718 18.447 17.529" stroke="black" stroke-width="2" stroke-miterlimit="10"/>
<path d="M26.1768 46.5679C27.4058 46.8509 28.6858 46.9999 30.0008 46.9999" stroke="black" stroke-width="2" stroke-miterlimit="10"/>
<path d="M20.0967 43.8193C21.1977 44.6103 22.3977 45.2723 23.6737 45.7843" stroke="black" stroke-width="2" stroke-miterlimit="10"/>
<path d="M15.1836 38.3403C15.8506 39.5233 16.6556 40.6173 17.5756 41.6033" stroke="black" stroke-width="2" stroke-miterlimit="10"/>
<path d="M13.1367 32.1621C13.2917 33.3861 13.5777 34.5701 13.9787 35.6981" stroke="black" stroke-width="2" stroke-miterlimit="10"/>
<path d="M13.433 26.1733C13.15 27.4033 13 28.6843 13 30.0003" stroke="black" stroke-width="2" stroke-miterlimit="10"/>
<path d="M16.0884 20.2271C15.3254 21.3111 14.6854 22.4891 14.1904 23.7401" stroke="black" stroke-width="2" stroke-miterlimit="10"/>
</svg>
