<svg width="60" height="60" viewBox="0 0 60 60" fill="none" xmlns="http://www.w3.org/2000/svg">
<path d="M32 25.9999V20.8989C33.237 19.6359 34 17.9069 34 15.9999C34 12.1339 30.866 8.99989 27 8.99989C27 8.99989 23 8.99989 20 8.99989C16 8.99989 12.656 6.81189 9.382 3.85889C9.382 3.85889 6 7.35689 6 12.9999C6 17.4179 10.477 20.9999 16 20.9999" stroke="white" stroke-width="2" stroke-miterlimit="10"/>
<path d="M10 19.4009V26.9999C10 33.0749 14.925 37.9999 21 37.9999C27.075 37.9999 32 33.0749 32 26.9999V24.9999" stroke="white" stroke-width="2" stroke-miterlimit="10"/>
<path d="M18.2832 33.4527C19.1192 33.8047 20.0372 33.9997 21.0002 33.9997C23.6962 33.9997 26.0362 32.4757 27.2062 30.2417" stroke="white" stroke-width="2" stroke-miterlimit="10"/>
<path d="M17 37.25V40.438C17 41.356 16.375 42.156 15.485 42.378L9.545 43.863C6.874 44.532 5 46.931 5 49.685V58" stroke="white" stroke-width="2" stroke-miterlimit="10"/>
<path d="M25 37.25V40.438C25 41.356 25.625 42.156 26.515 42.378L32.455 43.863C32.7 43.924 32.933 43.998 33.164 44.088" stroke="white" stroke-width="2" stroke-miterlimit="10"/>
<path d="M13.334 42.917C15.313 44.829 18.031 46 21 46C23.969 46 26.683 44.828 28.662 42.915" stroke="white" stroke-width="2" stroke-miterlimit="10"/>
<path d="M44 57C50.0751 57 55 52.0751 55 46C55 39.9249 50.0751 35 44 35C37.9249 35 33 39.9249 33 46C33 52.0751 37.9249 57 44 57Z" stroke="white" stroke-width="2" stroke-miterlimit="10"/>
<path d="M44 39V53" stroke="white" stroke-width="2" stroke-miterlimit="10"/>
<path d="M37 46H51" stroke="white" stroke-width="2" stroke-miterlimit="10"/>
<path d="M45.851 31.113C45.244 31.038 44.627 31 44 31" stroke="white" stroke-width="2" stroke-miterlimit="10"/>
<path d="M56.521 37.7369C54.606 34.8409 51.712 32.6479 48.311 31.6289" stroke="white" stroke-width="2" stroke-miterlimit="10"/>
<path d="M46 23H52" stroke="white" stroke-width="2" stroke-miterlimit="10"/>
<path d="M44.3599 15.8639L49.7129 12.7729" stroke="white" stroke-width="2" stroke-miterlimit="10"/>
<path d="M39.1069 10.6906L42.2269 5.28564" stroke="white" stroke-width="2" stroke-miterlimit="10"/>
</svg>
