<svg width="60" height="60" viewBox="0 0 60 60" fill="none" xmlns="http://www.w3.org/2000/svg">
<path d="M22 59H40" stroke="white" stroke-width="2" stroke-miterlimit="10"/>
<path d="M54 24C54 11.297 43.703 1 31 1C18.297 1 8 11.297 8 24C8 34.687 15.29 43.67 25.168 46.252L31 54.671L36.832 46.252C46.71 43.67 54 34.687 54 24V24Z" stroke="white" stroke-width="2" stroke-miterlimit="10"/>
<path d="M43.7526 33.6641C45.7906 30.9791 46.9996 27.6311 46.9996 24.0001C46.9996 15.5331 40.4236 8.60211 32.0996 8.03711" stroke="white" stroke-width="2" stroke-miterlimit="10"/>
<path d="M20.3184 35.9131C23.1514 38.4541 26.8954 40.0001 31.0004 40.0001C35.1014 40.0001 38.8424 38.4571 41.6744 35.9201" stroke="white" stroke-width="2" stroke-miterlimit="10"/>
<path d="M29.888 8.03809C21.57 8.60909 15 15.5371 15 24.0001C15 27.6311 16.209 30.9791 18.247 33.6641" stroke="white" stroke-width="2" stroke-miterlimit="10"/>
<path d="M7 44V49" stroke="white" stroke-width="2" stroke-miterlimit="10"/>
<path d="M7 53V58" stroke="white" stroke-width="2" stroke-miterlimit="10"/>
<path d="M14 51H9" stroke="white" stroke-width="2" stroke-miterlimit="10"/>
<path d="M5 51H0" stroke="white" stroke-width="2" stroke-miterlimit="10"/>
<path d="M59 15V7" stroke="white" stroke-width="2" stroke-miterlimit="10"/>
<path d="M59 5V2" stroke="white" stroke-width="2" stroke-miterlimit="10"/>
</svg>
