<svg width="60" height="60" viewBox="0 0 60 60" fill="none" xmlns="http://www.w3.org/2000/svg">
<path d="M30 5H28V7H30V5Z" fill="black"/>
<path d="M8 27H6V29H8V27Z" fill="black"/>
<path d="M25 6H23V8H25V6Z" fill="black"/>
<path d="M9 22H7V24H9V22Z" fill="black"/>
<path d="M15 12H13V14H15V12Z" fill="black"/>
<path d="M20 8H18V10H20V8Z" fill="black"/>
<path d="M11 17H9V19H11V17Z" fill="black"/>
<path d="M52 27H50V29H52V27Z" fill="black"/>
<path d="M35 6H33V8H35V6Z" fill="black"/>
<path d="M51 22H49V24H51V22Z" fill="black"/>
<path d="M45 12H43V14H45V12Z" fill="black"/>
<path d="M40 8H38V10H40V8Z" fill="black"/>
<path d="M49 17H47V19H49V17Z" fill="black"/>
<path d="M9 32H7V34H9V32Z" fill="black"/>
<path d="M15 42H13V44H15V42Z" fill="black"/>
<path d="M20 46H18V48H20V46Z" fill="black"/>
<path d="M11 37H9V39H11V37Z" fill="black"/>
<path d="M30.61 43.504L16.005 30.985C14.167 29.426 13 27.099 13 24.5C13 19.806 16.806 16 21.5 16C25.618 16 29.396 18.912 30.176 22.8" stroke="black" stroke-width="2" stroke-miterlimit="10"/>
<path d="M29.1523 20.23C30.6303 17.715 33.3763 16 36.5003 16C41.1943 16 45.0003 19.806 45.0003 24.5C45.0003 27.099 43.8333 29.426 41.9953 30.985L39.2803 33.497" stroke="black" stroke-width="2" stroke-miterlimit="10"/>
<path d="M53.811 35.796C54.584 33.335 55 30.716 55 28C55 27.376 54.978 26.757 54.935 26.144" stroke="black" stroke-width="2" stroke-miterlimit="10"/>
<path d="M17.7179 4.56934C14.1839 6.27434 11.0949 8.75434 8.6709 11.7903" stroke="black" stroke-width="2" stroke-miterlimit="10"/>
<path d="M39.831 38.812L37.884 33.327C37.61 32.549 36.872 32 36 32C34.895 32 34 32.895 34 34C34 34.181 34.052 34.357 34.097 34.524" stroke="black" stroke-width="2" stroke-miterlimit="10"/>
<path d="M43.9911 38.547L42.4841 34.327C42.2101 33.549 41.4721 33 40.6001 33C39.4951 33 38.6001 33.895 38.6001 35C38.6001 35.298 38.6391 35.454 38.7531 35.774" stroke="black" stroke-width="2" stroke-miterlimit="10"/>
<path d="M43.3379 36.718C43.2529 36.496 43.2119 36.253 43.2119 36C43.2119 34.895 44.1069 34 45.2119 34C46.0789 34 46.8189 34.555 47.0959 35.327L48.2989 38.694C48.7629 39.994 49.0009 41.364 49.0009 42.745C49.0009 43.579 48.9139 44.411 48.7419 45.228L47.8109 49.649" stroke="black" stroke-width="2" stroke-miterlimit="10"/>
<path d="M52.463 51.655L51.68 50.218C51.26 49.466 50.467 49 49.606 49C49.209 49 48.817 49.1 48.469 49.29L39.246 54.321C38.478 54.74 38 55.544 38 56.418C38 56.8 38.092 57.177 38.267 57.516L38.901 58.713" stroke="black" stroke-width="2" stroke-miterlimit="10"/>
<path d="M36 39.852L31.885 28.33C31.611 27.552 30.872 27 30 27C28.895 27 28 27.895 28 29C28 29.236 28.041 29.463 28.116 29.673L32.939 42.656C32.979 42.763 33 42.879 33 43C33 43.552 32.552 44 32 44C31.862 44 31.73 43.972 31.61 43.921L27.473 42.196C27.174 42.07 26.845 42 26.5 42C25.119 42 24 43.119 24 44.5C24 45.595 24.704 46.525 25.684 46.864L35.968 51.077C36.937 51.474 37.785 52.118 38.429 52.944L39.426 54.223" stroke="black" stroke-width="2" stroke-miterlimit="10"/>
<path d="M49.944 12.5901C46.389 7.76709 41.208 4.21509 35.21 2.74609" stroke="black" stroke-width="2" stroke-miterlimit="10"/>
<path d="M53.318 18.779C52.854 17.556 52.3 16.376 51.665 15.249" stroke="black" stroke-width="2" stroke-miterlimit="10"/>
<path d="M8.05615 43.4102C11.6112 48.2332 16.7922 51.7852 22.7902 53.2542" stroke="black" stroke-width="2" stroke-miterlimit="10"/>
<path d="M4.68213 37.2212C5.14613 38.4442 5.70013 39.6242 6.33513 40.7512" stroke="black" stroke-width="2" stroke-miterlimit="10"/>
</svg>
