<svg width="60" height="60" viewBox="0 0 60 60" fill="none" xmlns="http://www.w3.org/2000/svg">
<path d="M42.396 9.604L45.604 6.396" stroke="black" stroke-width="2" stroke-miterlimit="10"/>
<path d="M37.6729 6.69596L39.1239 2.23096" stroke="black" stroke-width="2" stroke-miterlimit="10"/>
<path d="M45.2988 14.3292L49.7398 12.8862" stroke="black" stroke-width="2" stroke-miterlimit="10"/>
<path d="M31.2729 21.9081L35.3409 20.4551C36.3079 20.1091 36.9999 19.1851 36.9999 18.1001C36.9999 16.7191 35.8809 15.6001 34.4999 15.6001C34.2049 15.6001 33.8359 15.6561 33.5549 15.7671" stroke="black" stroke-width="2" stroke-miterlimit="10"/>
<path d="M33.2432 26.5292L36.3582 25.4082C37.3252 25.0622 38.0002 24.1382 38.0002 23.0532C38.0002 21.6722 36.8972 20.5532 35.5172 20.5532C35.2222 20.5532 34.9192 20.6062 34.6562 20.7002" stroke="black" stroke-width="2" stroke-miterlimit="10"/>
<path d="M35.6662 25.6571C35.9292 25.5631 36.2052 25.5181 36.5002 25.5181C37.8812 25.5181 39.0002 26.6371 39.0002 28.0181C39.0002 29.1031 38.3082 30.0271 37.3412 30.3731L31.5742 32.4551C28.7422 33.4771 25.7552 34.0001 22.7442 34.0001H15.0112" stroke="black" stroke-width="2" stroke-miterlimit="10"/>
<path d="M1.18896 21.418L7.29796 19.127C7.51596 19.045 7.75296 19 7.99996 19C8.85896 19 9.58996 19.538 9.87296 20.298L15.873 36.298C15.954 36.515 16 36.754 16 37C16 37.858 15.46 38.589 14.702 38.873L8.23197 41.3" stroke="black" stroke-width="2" stroke-miterlimit="10"/>
<path d="M7 24H5V26H7V24Z" fill="black"/>
<path d="M30.1549 17.014L33.3409 15.855C34.3079 15.509 34.9999 14.585 34.9999 13.5C34.9999 12.119 33.8809 11 32.4999 11C32.2049 11 31.9219 11.051 31.6589 11.145L22.4689 14.884C22.3289 14.958 22.1689 15 21.9999 15C21.4479 15 20.9999 14.552 20.9999 14V6.5C20.9999 5.119 19.8809 4 18.4999 4C17.3389 4 16.3629 4.791 16.0819 5.864L10.6689 22.419" stroke="black" stroke-width="2" stroke-miterlimit="10"/>
<path d="M17.604 50.396L14.396 53.604" stroke="black" stroke-width="2" stroke-miterlimit="10"/>
<path d="M22.327 53.3042L20.876 57.7692" stroke="black" stroke-width="2" stroke-miterlimit="10"/>
<path d="M14.7008 45.6709L10.2598 47.1139" stroke="black" stroke-width="2" stroke-miterlimit="10"/>
<path d="M28.727 38.0918L24.659 39.5448C23.692 39.8908 23 40.8148 23 41.8998C23 43.2808 24.119 44.3998 25.5 44.3998C25.795 44.3998 26.164 44.3438 26.445 44.2328" stroke="black" stroke-width="2" stroke-miterlimit="10"/>
<path d="M25.78 33.8218L23.642 34.5918C22.675 34.9378 22 35.8618 22 36.9468C22 38.3278 23.103 39.4468 24.483 39.4468C24.778 39.4468 25.081 39.3938 25.344 39.2998" stroke="black" stroke-width="2" stroke-miterlimit="10"/>
<path d="M37.9756 26H44.9876" stroke="black" stroke-width="2" stroke-miterlimit="10"/>
<path d="M58.811 38.5822L52.702 40.8732C52.484 40.9552 52.247 41.0002 52 41.0002C51.141 41.0002 50.41 40.4622 50.127 39.7022L44.127 23.7022C44.046 23.4852 44 23.2462 44 23.0002C44 22.1422 44.54 21.4112 45.298 21.1272L51.769 18.7012" stroke="black" stroke-width="2" stroke-miterlimit="10"/>
<path d="M55 34H53V36H55V34Z" fill="black"/>
<path d="M29.845 42.9861L26.659 44.1451C25.692 44.4911 25 45.4151 25 46.5001C25 47.8811 26.119 49.0001 27.5 49.0001C27.795 49.0001 28.078 48.9491 28.341 48.8551L37.531 45.1161C37.671 45.0421 37.831 45.0001 38 45.0001C38.552 45.0001 39 45.4481 39 46.0001V53.5001C39 54.8811 40.119 56.0001 41.5 56.0001C42.661 56.0001 43.637 55.2091 43.918 54.1361L49.331 37.5811" stroke="black" stroke-width="2" stroke-miterlimit="10"/>
</svg>
