<svg width="60" height="60" viewBox="0 0 60 60" fill="none" xmlns="http://www.w3.org/2000/svg">
<path d="M37.333 9.815L33.77 3.068C33.435 2.433 32.768 2 32 2C31.724 2 31.461 2.056 31.222 2.157L8.203 12.165C7.485 12.469 7 13.172 7 14C7 14.337 7.083 14.654 7.23 14.932L16.278 32.076" stroke="black" stroke-width="2" stroke-miterlimit="10"/>
<path d="M24.7441 48.1099L26.2301 50.9319C26.5651 51.5669 27.2321 51.9999 28.0001 51.9999C28.2761 51.9999 28.5391 51.9439 28.7781 51.8429L51.7961 41.8349C52.5151 41.5309 53.0001 40.8279 53.0001 39.9999C53.0001 39.6629 52.9171 39.3459 52.7701 39.0679L43.1161 20.7759" stroke="black" stroke-width="2" stroke-miterlimit="10"/>
<path d="M21.5381 51.8468L24.2301 56.9318C24.5651 57.5668 25.2321 57.9998 26.0001 57.9998C26.2761 57.9998 26.5391 57.9438 26.7781 57.8428L49.7961 47.8348C50.3221 47.6118 50.7151 47.1788 50.8971 46.6328L52.8971 40.6328" stroke="black" stroke-width="2" stroke-miterlimit="10"/>
<path d="M7.102 13.3672L5.102 19.3672C5.036 19.5662 5 19.7792 5 20.0002C5 20.3372 5.083 20.6542 5.23 20.9322L11.39 32.6062" stroke="black" stroke-width="2" stroke-miterlimit="10"/>
<path d="M40 42H38V44H40V42Z" fill="black"/>
<path d="M29.4019 42.8489L50.0319 33.8789" stroke="black" stroke-width="2" stroke-miterlimit="10"/>
<path d="M35.0101 5.41699L8.33008 17.017" stroke="black" stroke-width="2" stroke-miterlimit="10"/>
<path d="M31.172 16.1719C30.448 16.8949 30 17.8949 30 18.9999C30 21.2089 31.791 22.9999 34 22.9999C34.409 22.9999 34.804 22.9389 35.176 22.8239L50 18.9999L42.339 4.65088L31.172 16.1719Z" stroke="black" stroke-width="2" stroke-miterlimit="10"/>
<path d="M35 22.8739V28.9999C35 30.1049 35.895 30.9999 37 30.9999C38.105 30.9999 39 30.1049 39 28.9999V21.8379" stroke="black" stroke-width="2" stroke-miterlimit="10"/>
<path d="M36.4971 18.6867L33.2031 14.0757" stroke="black" stroke-width="2" stroke-miterlimit="10"/>
<path d="M50.271 9.46167L54.611 6.51367" stroke="black" stroke-width="2" stroke-miterlimit="10"/>
<path d="M47.541 5.79976L50.58 2.28076" stroke="black" stroke-width="2" stroke-miterlimit="10"/>
<path d="M52.2588 13.6006L56.7538 12.0366" stroke="black" stroke-width="2" stroke-miterlimit="10"/>
<path d="M18.755 19.4619L14.271 21.4119" stroke="black" stroke-width="2" stroke-miterlimit="10"/>
<path d="M22.7448 17.7017L21.2388 18.3817" stroke="black" stroke-width="2" stroke-miterlimit="10"/>
<path d="M24.7422 21.7275L16.2822 25.4055" stroke="black" stroke-width="2" stroke-miterlimit="10"/>
<path d="M23 35.4658V29.1348L17.315 32.2478C16.568 32.0888 15.795 31.9998 15 31.9998C8.925 31.9998 4 36.9248 4 42.9998C4 49.0748 8.925 53.9998 15 53.9998C21.075 53.9998 26 49.0748 26 42.9998C26 40.0808 24.855 37.4348 23 35.4658V35.4658Z" stroke="black" stroke-width="2" stroke-miterlimit="10"/>
<path d="M15.965 41C15.722 39.304 14.264 38 12.5 38C10.567 38 9 39.567 9 41.5C9 42.46 9.386 43.328 10.012 43.961L15 49L18 45.973" stroke="black" stroke-width="2" stroke-miterlimit="10"/>
<path d="M16.984 47L19.989 43.961C20.622 43.327 21 42.467 21 41.5C21 39.567 19.433 38 17.5 38C16.534 38 15.633 38.417 15 39.051" stroke="black" stroke-width="2" stroke-miterlimit="10"/>
</svg>
