<svg width="60" height="60" viewBox="0 0 60 60" fill="none" xmlns="http://www.w3.org/2000/svg">
<path d="M20 38H11C9.343 38 8 39.343 8 41V51C8 52.657 9.343 54 11 54H17L20 57L23 54H29C30.657 54 32 52.657 32 51V42" stroke="white" stroke-width="2" stroke-miterlimit="10"/>
<path d="M21 45H19V47H21V45Z" fill="white"/>
<path d="M26 45H24V47H26V45Z" fill="white"/>
<path d="M16 45H14V47H16V45Z" fill="white"/>
<path d="M46 42H55C56.657 42 58 40.657 58 39V23C58 21.343 56.657 20 55 20H23C21.343 20 20 21.343 20 23V39C20 40.657 21.343 42 23 42H32L39 49L46 42Z" stroke="white" stroke-width="2" stroke-miterlimit="10"/>
<path d="M47 9H51" stroke="white" stroke-width="2" stroke-miterlimit="10"/>
<path d="M55 9H59" stroke="white" stroke-width="2" stroke-miterlimit="10"/>
<path d="M53 11V15" stroke="white" stroke-width="2" stroke-miterlimit="10"/>
<path d="M53 3V7" stroke="white" stroke-width="2" stroke-miterlimit="10"/>
<path d="M29 31H49" stroke="white" stroke-width="2" stroke-miterlimit="10"/>
<path d="M29 36H49" stroke="white" stroke-width="2" stroke-miterlimit="10"/>
<path d="M29 26H43" stroke="white" stroke-width="2" stroke-miterlimit="10"/>
<path d="M39 20V7C39 5.343 37.657 4 36 4H5C3.343 4 2 5.343 2 7V24C2 25.657 3.343 27 5 27H20" stroke="white" stroke-width="2" stroke-miterlimit="10"/>
<path d="M25.9461 20L28.7561 17.933C30.1171 16.932 31.0001 15.319 31.0001 13.5C31.0001 10.462 28.5381 8 25.5001 8C22.6861 8 20.3651 10.114 20.0391 12.84" stroke="white" stroke-width="2" stroke-miterlimit="10"/>
<path d="M20.5 11.206C19.631 9.314 17.719 8 15.5 8C12.462 8 10 10.462 10 13.5C10 15.32 10.884 16.933 12.246 17.934L20 23.609" stroke="white" stroke-width="2" stroke-miterlimit="10"/>
</svg>
