<svg width="60" height="60" viewBox="0 0 60 60" fill="none" xmlns="http://www.w3.org/2000/svg">
<path d="M26 29C27.666 29 29 27.084 29 25C29 21 32.53 20 34 20C37 20 38 22 38 23.281C38 24.771 37 27 35 27C32.812 27 33 24.562 33 24" stroke="black" stroke-width="2" stroke-miterlimit="10"/>
<path d="M37.521 11.708C38.801 9.957 40 7.304 40 5.774C40 3.167 38.791 1 36.125 1C34.301 1 33 2.042 33 4C33 6 34.58 5.997 35.997 5.997" stroke="black" stroke-width="2" stroke-miterlimit="10"/>
<path d="M33.4702 15.5949C33.9882 15.1529 34.8122 14.3379 35.5882 13.4629" stroke="black" stroke-width="2" stroke-miterlimit="10"/>
<path d="M25.299 19.825C26.938 17.578 31 15.792 31 11C31 7.33298 28.956 6.05298 26 6.05298C24.206 6.05298 22 7.66698 22 9.99998C22 11.605 23.083 13 25 13C26.542 13 27 11.716 27 11" stroke="black" stroke-width="2" stroke-miterlimit="10"/>
<path d="M22.6992 23.9119C22.9882 23.2149 23.1232 22.9339 23.5072 22.2959" stroke="black" stroke-width="2" stroke-miterlimit="10"/>
<path d="M22 28C22 27.299 22.072 26.634 22.201 25.999" stroke="black" stroke-width="2" stroke-miterlimit="10"/>
<path d="M45 4V9" stroke="black" stroke-width="2" stroke-miterlimit="10"/>
<path d="M50.813 9.00001L52.125 4.18701" stroke="black" stroke-width="2" stroke-miterlimit="10"/>
<path d="M56.458 10.696L59.05 6.98096" stroke="black" stroke-width="2" stroke-miterlimit="10"/>
<path d="M39.46 37H56.5C57.881 37 59 35.881 59 34.5C59 33.119 57.881 32 56.5 32H30L27.5 34.5L30 37H35" stroke="black" stroke-width="2" stroke-miterlimit="10"/>
<path d="M53.4839 53C54.9979 49.312 56.0409 46.083 55.9999 42V37" stroke="black" stroke-width="2" stroke-miterlimit="10"/>
<path d="M45.0001 37.0001V42.0001C45.0001 42.5021 44.5961 43.0001 44.1801 43.0001C43.9381 43.0001 43.6841 42.8971 43.5121 42.6561L38.6311 35.8421C38.1951 35.2311 37.4251 34.8741 36.5861 35.0411C35.8471 35.1891 35.2271 35.7841 35.0571 36.5201C34.9301 37.0601 35.0241 37.5761 35.2661 37.9961L40.2341 46.6391C41.2601 48.4251 43.7091 51.5641 45.2711 53.0011" stroke="black" stroke-width="2" stroke-miterlimit="10"/>
<path d="M36.6362 32L42.9792 26.832C43.6392 26.294 44.4652 26 45.3172 26C45.7682 26 46.2152 26.084 46.6372 26.245L52.8652 28.628C53.8062 28.987 54.5762 29.689 55.0212 30.591L55.7192 32" stroke="black" stroke-width="2" stroke-miterlimit="10"/>
<path d="M40 60V55C40 53.896 40.896 53 42 53H56C57.104 53 58 53.896 58 55V60" stroke="black" stroke-width="2" stroke-miterlimit="10"/>
<path d="M11 37.0001V42.1781C11 42.6811 11.395 43.0001 11.799 43.0001C12.035 43.0001 12.281 42.8971 12.449 42.6561L18.465 35.8421C18.889 35.2311 19.639 34.8741 20.455 35.0411C21.176 35.1891 21.779 35.7841 21.945 36.5201C22.068 37.0601 21.976 37.5761 21.742 37.9961L16.904 46.6391C15.904 48.4251 13.521 51.5641 12 53.0011" stroke="black" stroke-width="2" stroke-miterlimit="10"/>
<path d="M11.0061 30.2561C10.2191 30.2561 5.86013 32.5681 4.79913 33.6281C2.42213 36.0051 2.00113 42.0001 2.00113 42.0001C1.96113 46.0831 2.98413 49.3131 4.46913 53.0001" stroke="black" stroke-width="2" stroke-miterlimit="10"/>
<path d="M18 60V55.035C18 53.896 17.154 53 16.111 53H2.889C1.846 53 1 53.896 1 55V60" stroke="black" stroke-width="2" stroke-miterlimit="10"/>
<path d="M40.4488 47H16.6938" stroke="black" stroke-width="2" stroke-miterlimit="10"/>
<path d="M40 14H52.98C54.084 14 55 14.896 55 16V30.553" stroke="black" stroke-width="2" stroke-miterlimit="10"/>
<path d="M11 38.302V16C11 14.896 11.896 14 13 14H20" stroke="black" stroke-width="2" stroke-miterlimit="10"/>
<path d="M17 33V14" stroke="black" stroke-width="2" stroke-miterlimit="10"/>
<path d="M21.994 51H20" stroke="black" stroke-width="2" stroke-miterlimit="10"/>
<path d="M35 51H24" stroke="black" stroke-width="2" stroke-miterlimit="10"/>
<path d="M26 42H24" stroke="black" stroke-width="2" stroke-miterlimit="10"/>
<path d="M33 42H28" stroke="black" stroke-width="2" stroke-miterlimit="10"/>
</svg>
