<svg width="60" height="60" viewBox="0 0 60 60" fill="none" xmlns="http://www.w3.org/2000/svg">
<path d="M40 17C40 10.875 33.278 2 30 2C26.722 2 20 10.875 20 17V39H40V17Z" stroke="black" stroke-width="2" stroke-miterlimit="10"/>
<path d="M20.0001 38.9999V41.9999C20.0001 42.5519 19.5521 42.9999 19.0001 42.9999H13.0001C12.4361 42.9999 11.9861 42.5369 12.0011 41.9739C12.1381 36.6049 13.4431 29.0149 20.0001 27.4529" stroke="black" stroke-width="2" stroke-miterlimit="10"/>
<path d="M40 38.9999V41.9999C40 42.5519 40.448 42.9999 41 42.9999H47C47.564 42.9999 48.014 42.5369 47.999 41.9739C47.862 36.6049 46.558 29.0139 40 27.4529" stroke="black" stroke-width="2" stroke-miterlimit="10"/>
<path d="M30 44V54" stroke="black" stroke-width="2" stroke-miterlimit="10"/>
<path d="M35 42V46" stroke="black" stroke-width="2" stroke-miterlimit="10"/>
<path d="M25 42V46" stroke="black" stroke-width="2" stroke-miterlimit="10"/>
<path d="M25 48V50" stroke="black" stroke-width="2" stroke-miterlimit="10"/>
<path d="M51 1V6" stroke="black" stroke-width="2" stroke-miterlimit="10"/>
<path d="M51 10V15" stroke="black" stroke-width="2" stroke-miterlimit="10"/>
<path d="M58 8H53" stroke="black" stroke-width="2" stroke-miterlimit="10"/>
<path d="M49 8H44" stroke="black" stroke-width="2" stroke-miterlimit="10"/>
<path d="M14 3H12V5H14V3Z" fill="black"/>
<path d="M14 7H12V9H14V7Z" fill="black"/>
<path d="M14 11H12V13H14V11Z" fill="black"/>
<path d="M14 15H12V17H14V15Z" fill="black"/>
<path d="M14 19H12V21H14V19Z" fill="black"/>
<path d="M56 35H54V37H56V35Z" fill="black"/>
<path d="M56 39H54V41H56V39Z" fill="black"/>
<path d="M49 21H47V23H49V21Z" fill="black"/>
<path d="M49 25H47V27H49V25Z" fill="black"/>
<path d="M56 43H54V45H56V43Z" fill="black"/>
<path d="M56 47H54V49H56V47Z" fill="black"/>
<path d="M9 32H7V34H9V32Z" fill="black"/>
<path d="M9 36H7V38H9V36Z" fill="black"/>
<path d="M31 9H29V11H31V9Z" fill="black"/>
<path d="M31 13H29V15H31V13Z" fill="black"/>
<path d="M30 30C33.3137 30 36 27.3137 36 24C36 20.6863 33.3137 18 30 18C26.6863 18 24 20.6863 24 24C24 27.3137 26.6863 30 30 30Z" stroke="black" stroke-width="2" stroke-miterlimit="10"/>
<path d="M20 58H22" stroke="black" stroke-width="2" stroke-miterlimit="10"/>
<path d="M24 58H26" stroke="black" stroke-width="2" stroke-miterlimit="10"/>
<path d="M16.343 54.594C15.268 52.977 13.087 52 11 52C7.686 52 5 54.686 5 58H18" stroke="black" stroke-width="2" stroke-miterlimit="10"/>
<path d="M11.6951 52.036C11.6951 49.275 14.2391 47 17.0001 47C18.4591 47 19.7711 47.625 20.6851 48.621" stroke="black" stroke-width="2" stroke-miterlimit="10"/>
<path d="M40.531 53.605C41.962 51.433 44.205 50 47 50C51.418 50 55 53.582 55 58H28" stroke="black" stroke-width="2" stroke-miterlimit="10"/>
<path d="M37.165 48.069C37.437 48.024 37.716 48 38 48C40.149 48 42.027 49.415 42.734 51.318" stroke="black" stroke-width="2" stroke-miterlimit="10"/>
</svg>
