<svg width="60" height="60" viewBox="0 0 60 60" fill="none" xmlns="http://www.w3.org/2000/svg">
<path d="M32.062 26.0931C32.062 26.0931 33.868 26.4751 34.097 26.5451C35.93 27.1041 37 27.7761 37 28.5021C37 30.4351 29.389 32.0021 20 32.0021C10.611 32.0021 3 30.4351 3 28.5021C3 27.7371 4.19 27.0301 6.211 26.4541C6.477 26.3781 8.059 25.9751 8.059 25.9751" stroke="black" stroke-width="2" stroke-miterlimit="10"/>
<path d="M14.9082 36.9191C12.2362 36.7931 9.98225 36.5201 8.03125 36.1091" stroke="black" stroke-width="2" stroke-miterlimit="10"/>
<path d="M18.9694 36.9932C18.6484 36.9982 18.3264 37.0002 18.0004 37.0002C17.6654 37.0002 17.4394 36.9972 17.1094 36.9922" stroke="black" stroke-width="2" stroke-miterlimit="10"/>
<path d="M36.9692 28.717L31.1152 48.468" stroke="black" stroke-width="2" stroke-miterlimit="10"/>
<path d="M22.8135 31.954L32.0005 8L38.0005 3V11L30.0005 31.332" stroke="black" stroke-width="2" stroke-miterlimit="10"/>
<path d="M29.2763 15.103L22.9443 15.375" stroke="black" stroke-width="2" stroke-miterlimit="10"/>
<path d="M4.617 36.145L1.176 44.823C1.062 45.194 1 45.59 1 46C1 47.993 2.458 49.646 4.367 49.95L48.366 56.95C48.572 56.982 48.784 57 49 57C50.977 57 52.619 55.565 52.942 53.681L58.942 18.681C58.98 18.46 59 18.232 59 18C59 15.791 57.209 14 55 14C54.936 14 54.871 14.002 54.807 14.005L36.507 14.795" stroke="black" stroke-width="2" stroke-miterlimit="10"/>
<path d="M20.0021 56.4382L13.9951 55.4822" stroke="black" stroke-width="2" stroke-miterlimit="10"/>
<path d="M23.9998 57.0731L22.0078 56.7571" stroke="black" stroke-width="2" stroke-miterlimit="10"/>
<path d="M4.00205 56.4491L1.99805 56.1301" stroke="black" stroke-width="2" stroke-miterlimit="10"/>
<path d="M8.001 57.0851L6 56.7671" stroke="black" stroke-width="2" stroke-miterlimit="10"/>
<path d="M50.123 10.228L52.939 10.094" stroke="black" stroke-width="2" stroke-miterlimit="10"/>
<path d="M38 10.8052L47.873 10.3352" stroke="black" stroke-width="2" stroke-miterlimit="10"/>
<path d="M53.7175 20L52.6885 25.999" stroke="black" stroke-width="2" stroke-miterlimit="10"/>
<path d="M49.4303 45L48.4023 51" stroke="black" stroke-width="2" stroke-miterlimit="10"/>
<path d="M51.487 33L50.459 38.999" stroke="black" stroke-width="2" stroke-miterlimit="10"/>
<path d="M34.2554 20.519L45.8914 20.003C45.9384 20.001 45.9864 20 46.0344 20C47.6724 20 49.0004 21.249 49.0004 22.791C49.0004 22.953 48.9854 23.111 48.9574 23.266L44.5104 47.685C44.2704 48.999 43.0524 50 41.5864 50C41.4264 50 41.2704 49.988 41.1164 49.965L8.49641 45.082C7.07441 44.868 6.38341 44.113 6.08841 43.003L3.02441 28.717" stroke="black" stroke-width="2" stroke-miterlimit="10"/>
<path d="M22.0001 12.0001C23.0941 12.0001 25.0001 10.5871 25.0001 8.00011C25.0001 2.02111 18.0001 2.00011 18.0001 2.00011C18.0001 2.00011 18.0001 1.94211 18.0001 2.97111C18.0001 6.03111 16.0241 5.91311 16.0001 9.00011C15.9821 11.1661 18.0191 11.9261 19.0001 12.0001" stroke="black" stroke-width="2" stroke-miterlimit="10"/>
<path d="M22.813 31.954C23.15 27.761 24 22.682 24 21.392C24 20.169 23.87 18.951 23.613 17.764L22 12H19L17.426 17.764C17.143 18.949 17 20.168 17 21.391C17 22.688 17.648 27.77 18.021 31.979" stroke="black" stroke-width="2" stroke-miterlimit="10"/>
<path d="M23.6621 18H17.3721" stroke="black" stroke-width="2" stroke-miterlimit="10"/>
<path d="M9.97126 31.327L4.01026 14.648C3.99626 14.601 3.98926 14.551 3.98926 14.5C3.98926 14.279 4.13226 14.092 4.33126 14.025L10.3313 12.025C10.3793 12.009 10.4333 12 10.4883 12C10.7123 12 10.9023 12.147 10.9653 12.352L18.0223 31.979" stroke="black" stroke-width="2" stroke-miterlimit="10"/>
<path d="M5.44238 18.6541L8.98838 17.4731" stroke="black" stroke-width="2" stroke-miterlimit="10"/>
<path d="M7.06641 23.2012L9.97141 22.2322" stroke="black" stroke-width="2" stroke-miterlimit="10"/>
<path d="M8.49414 27.1952L11.3161 26.2842" stroke="black" stroke-width="2" stroke-miterlimit="10"/>
</svg>
