<svg width="60" height="60" viewBox="0 0 60 60" fill="none" xmlns="http://www.w3.org/2000/svg">
<path d="M7.445 37.797L5.061 31.344C5.021 31.237 5 31.121 5 31C5 30.568 5.274 30.2 5.658 30.06C10.895 28.16 16.625 26 24 26C24.224 26 24.431 26.074 24.598 26.199L29.401 29.802C29.569 29.926 29.776 30 30 30C30.039 30 30.077 29.998 30.115 29.993C36.519 29.24 37.966 29 41 29C45.458 29 48.781 29.736 55.195 31.019C55.654 31.11 56 31.515 56 32C56 32.069 55.993 32.136 55.98 32.202L50.939 55.605C50.659 56.972 49.45 58 48 58H17C15.709 58 14.608 57.184 14.185 56.04L13.158 53.261" stroke="black" stroke-width="2" stroke-miterlimit="10"/>
<path d="M42 32H40V34H42V32Z" fill="black"/>
<path d="M36 33H34V35H36V33Z" fill="black"/>
<path d="M48 33H46V35H48V33Z" fill="black"/>
<path d="M26.01 14.14C26.003 14.094 26 14.047 26 14C26 13.448 26.448 13 27 13C27.16 13 27.311 13.037 27.444 13.104L33.444 16.104C33.774 16.268 34 16.607 34 17C34 17.316 33.853 17.598 33.624 17.781L28.624 21.781C28.453 21.918 28.236 22 28 22C27.495 22 27.078 21.626 27.01 21.14L26.01 14.14Z" stroke="black" stroke-width="2" stroke-miterlimit="10"/>
<path d="M41.234 25.813L37 8C26.167 8 15.643 10.434 6.854 14.768L9.347 24.741" stroke="black" stroke-width="2" stroke-miterlimit="10"/>
<path d="M12.188 17.375L19.875 14.75" stroke="black" stroke-width="2" stroke-miterlimit="10"/>
<path d="M13.313 21.313L21 18.688" stroke="black" stroke-width="2" stroke-miterlimit="10"/>
<path d="M23.1541 5.176C27.5341 3.844 32.1831 3 37.0001 3C41.8641 3 46.5581 3.731 50.9771 5.09L47.8831 25.894" stroke="black" stroke-width="2" stroke-miterlimit="10"/>
<path d="M10.246 45.3361L16.047 42.2421C16.33 42.0871 16.655 42.0001 17 42.0001C18.105 42.0001 19 42.8951 19 44.0001C19 44.7651 18.571 45.4291 17.94 45.7661L10.88 49.5321C10.32 49.8311 9.68 50.0001 9 50.0001C6.791 50.0001 5 48.2091 5 46.0001C5 44.4811 5.846 43.1601 7.093 42.4831L12.713 39.4851" stroke="black" stroke-width="2" stroke-miterlimit="10"/>
</svg>
